<svg xmlns="http://www.w3.org/2000/svg" viewBox="0 0 320 160" fill="none">
  <defs>
    <linearGradient id="gJ1" x1="0" y1="0" x2="1" y2="1">
      <stop offset="0%" stop-color="#8B6FE8"/>
      <stop offset="100%" stop-color="#5A3FD9"/>
    </linearGradient>
    <linearGradient id="gJ2" x1="0" y1="0" x2="1" y2="1">
      <stop offset="0%" stop-color="#6A5AE0"/>
      <stop offset="100%" stop-color="#3A2DB0"/>
    </linearGradient>
    <linearGradient id="gD1" x1="0" y1="0" x2="1" y2="1">
      <stop offset="0%" stop-color="#4A8AEA"/>
      <stop offset="100%" stop-color="#2A6AC8"/>
    </linearGradient>
    <linearGradient id="gB1" x1="0" y1="0" x2="1" y2="1">
      <stop offset="0%" stop-color="#2ABFC4"/>
      <stop offset="100%" stop-color="#1A8A9A"/>
    </linearGradient>
    <linearGradient id="gB2" x1="0" y1="0" x2="1" y2="1">
      <stop offset="0%" stop-color="#1A3A7A"/>
      <stop offset="100%" stop-color="#0D2050"/>
    </linearGradient>
  </defs>

  <!-- Letter J -->
  <polygon points="15,10 55,10 55,25 35,25 35,100 55,115 55,130 15,130 15,115 25,110 25,25 15,25" fill="url(#gJ1)"/>
  <polygon points="25,10 45,10 45,20 35,20 35,25 25,25" fill="url(#gJ2)" opacity="0.7"/>
  <polygon points="15,115 45,130 15,130" fill="url(#gJ2)" opacity="0.6"/>

  <!-- Letter D -->
  <polygon points="65,10 90,10 110,30 110,110 90,130 65,130 65,10" fill="url(#gD1)"/>
  <polygon points="75,20 90,20 100,35 100,105 90,120 75,120 75,20" fill="#0E1A3A" opacity="0.4"/>
  <polygon points="65,10 90,10 85,20 75,20 75,120 90,120 65,130" fill="url(#gD1)" opacity="0.5"/>

  <!-- Letter B -->
  <rect x="120" y="10" width="14" height="120" fill="url(#gB2)"/>
  <polygon points="134,10 165,10 175,25 175,60 165,68 134,68 134,10" fill="url(#gB1)"/>
  <polygon points="134,68 170,68 182,82 182,115 170,130 134,130 134,68" fill="url(#gD1)"/>
  <polygon points="134,20 158,20 166,30 166,58 158,65 134,65" fill="#0E1A3A" opacity="0.3"/>
  <polygon points="134,78 162,78 170,88 170,110 162,120 134,120" fill="#0E1A3A" opacity="0.3"/>

  <!-- Bank icon inside B -->
  <rect x="152" y="90" width="3" height="14" fill="white" opacity="0.6"/>
  <rect x="157" y="90" width="3" height="14" fill="white" opacity="0.6"/>
  <rect x="162" y="90" width="3" height="14" fill="white" opacity="0.6"/>
  <polygon points="151,90 166,90 168,93 149,93" fill="white" opacity="0.7"/>
  <rect x="149" y="104" width="20" height="3" fill="white" opacity="0.7"/>
  <polygon points="158,82 159,82 169,89 148,89" fill="white" opacity="0.7"/>

  <!-- Subtitle -->
  <text x="15" y="152" font-family="Arial, sans-serif" font-size="11" font-weight="300" fill="#6A8ACA" letter-spacing="4">Journée  des  Bourses</text>
</svg>
